<?xml version="1.0" encoding="utf-8"?>
<!-- Generator: Adobe Illustrator 25.4.1, SVG Export Plug-In . SVG Version: 6.00 Build 0)  -->
<svg version="1.1" id="Layer_1" xmlns="http://www.w3.org/2000/svg" xmlns:xlink="http://www.w3.org/1999/xlink" x="0px" y="0px"
	 viewBox="0 0 1066 1152" style="enable-background:new 0 0 1066 1152;" xml:space="preserve">
<style type="text/css">
	.st0{fill:#F46700;}
</style>
<g>
	
		<image style="overflow:visible;opacity:0.75;" width="1062" height="1023" xlink:href="8C843E25.png"  transform="matrix(1 0 0 1 6 8)">
	</image>
	<g>
		<g>
			<path class="st0" d="M214.5,1008.8c3.3,0.3,8.8,0.3,12.3,0c3.3-0.3,0.5-0.7-6.2-0.7C213.8,1008.1,211,1008.4,214.5,1008.8z"/>
			<path class="st0" d="M149.5,870.8c3.4-1.3,12.1-4,19.3-6c7.2-2,16.4-4.7,20.5-5.9c4.1-1.2,11.8-3.3,17.2-4.9
				c14.4-3.9,75.4-22.1,86.9-26c5.4-1.8,14.6-4.5,20.3-5.9c5.9-1.5,13.6-3.7,17.2-4.9c10.3-3.4,53.5-15.9,61-17.8l6.7-1.7l-4.6-9.6
				c-2.5-5.4-6.6-16.9-9.2-25.7c-4.1-14.3-4.6-18.5-4.6-39.4c0-10.5,0.8-20.6,3.1-35.2c6.3-38.9,20.9-74,22.4-73.5
				c0.9,0.3-3.4,11.9-4.8,33.2c-0.4,6.2-0.2,12.3-0.2,20.3c0,9.9,5.4,29.3,11.1,39.6c5.1,9.6,16.2,22,18.7,21.1
				c-1-2.3-2.6-5.9-4.6-10.2c-3.9-8.4-5.5-10.8-7.1-14.4c-3.6-8.2-4.1-15.3-4.6-22.3c-1-13.9,1.5-24.4,2.5-28.1
				c1.3-4.9,2.7-8.4,3.8-10.9c6.4-15.8,10.9-29.8,15.2-42.7c5.3-15.9,10.3-29.9,11.6-42.8c0.5-4.7,1.8-11.4,2.8-14.9
				c3.8-12.9-3.9-39.8-14.9-52.2c-2.3-2.7-10.2-7.7-17.4-11.2c-7.2-3.5-12-6.4-10.7-6.2c1.3,0.2,4.8-0.7,7.4-1.8
				c6.4-2.7,22.8-2.9,34-0.2c13,3,31.8,13.1,41.7,22.3c10.2,9.6,21.5,26.5,26.9,40.1c3.6,9.4,6.6,12.6,6.6,7c0-4.9-5.1-23-9.4-33.4
				c-2.3-5.6-12.5-23.3-22.5-39.4c-29.2-46.5-35.7-64.3-35.7-96.5c0-17.3,0.5-22.1,4.4-34.4c0,0,0-0.1,0.1-0.3
				c1.8-5.4,6.3-17.1,9.8-24.1c1.5-3,2.5-4.5,15.8-22.2c14.4-19.2,16.5-21.8,19.4-27.7c3.5-7.2,6.7-13.9,7.2-22.3
				c1.3-23-19.6-38.5-16.8-41.7c3.5-4,34.6,4.8,45.2,28.2c18.9,41.9-36.4,112.4-22.6,143.7c3.4,7.6,7.8,15.7,7.8,15.7
				c5.2,9.5,9.7,17.4,16.2,26.1c3.8,5,7.2,10.1,7.5,11.1c1.3,3.7,51.8,57.7,54,57.7c0.7,0,1.5-6.7,2-14.8
				c0.8-13.1,1.7-16.4,6.9-26.9c6.1-11.7,14.6-19.7,21.5-20.4c0.2,1.7,0.3,3.5,0.5,5.2c-0.4,1.6-0.6,3.2-0.6,4.8
				c-0.6,2.3-0.7,4.7-0.4,7.1c-1.8,7.7-1.9,12.4-1.3,22.2c0.5,8.2,2.6,21.5,4.8,29.4c4.3,15.8,22.8,56.1,32.3,70.5
				c4,6.1,20.5,35.2,25.6,51.5c0.1,0.2,1.6,5,3.7,11.7c2.4,7.5,4.3,13.8,5.6,18c0.8,3.9,1.8,9.9,2.4,17.3c0.4,5.5,0.3,8.6,0.5,16.3
				c0.3,14.1,0.5,21.1,1.5,21.8c1.5,1,63.5-60.9,73.8-73.7c3.1-3.7,11.1-13.1,18-20.8l12.5-13.9L801,560.6
				c-6.9-13.9-18.2-37.4-25.3-52.2c-7.1-14.8-20-42-28.7-60.4c-8.7-18.4-20.5-43.4-26.2-55.4c-14.6-30.9-39.2-82.9-53.3-112.4
				c-6.6-13.9-16.1-34.2-21.2-45.3c-5.1-11.1-10.3-22-11.8-24.3c-1.3-2.3-5.4-10.6-9.2-18.5c-3.6-7.9-11.1-24.2-16.9-36.1
				c-17.1-35.9-22.1-47.5-22.1-49.3c0-1-0.6-1.8-1.5-1.8c-0.8,0-1.8-2.2-2.3-4.9c-0.5-2.7-2.1-6-3.6-7.4c-1.3-1.5-2.5-3.2-2.5-4
				c0-0.7-6.6-15.1-14.8-31.9c-8-16.6-14.8-31.5-14.8-32.9c0-1.5-0.5-3.7-1-5.2c-0.5-1.5-1.6-2.7-2.5-2.7c-1.6,0-4.8,7-4.8,10.4
				c0,1-2.1,5.7-4.8,10.4c-2.6,4.7-6.1,12.2-7.7,16.9c-1.6,4.5-5.1,12.1-7.5,16.4c-2.5,4.4-4.6,8.4-4.6,8.9
				c0,0.5-8.7,19.1-19.5,41.4c-10.7,22.3-24.3,51.2-30.3,64.1c-6.2,12.9-16.6,34.7-23.1,48.7c-6.6,13.8-20.8,44-31.8,67.1
				c-11,23-19.8,42.6-19.8,43.4c0,0.8-1.6,4.2-3.6,7.4c-2,3.4-9.2,18.1-16.1,32.9c-6.9,14.9-21.2,44.8-31.5,66.4
				c-10.5,21.6-21.2,44.3-23.9,50.3c-2.6,6-15.1,32.4-27.7,58.7c-12.6,26.4-25.4,53-28.4,59.6c-2.9,6.4-10,21.3-15.6,32.9
				c-5.7,11.6-10.8,23-11.5,25.2c-0.6,1.7-0.8,2.6-0.6,2.9c-0.9,1.7-1.8,3.5-2.4,5.3c-1.9,2.3-4.3,6.2-4.3,7.6s-1,3.4-2.3,4.7
				c-1.3,1.2-4.9,7.9-8,14.9c-9.5,20.6-28.4,60.7-41.2,87.7c-6.7,13.8-15.1,31.7-18.7,39.8c-3.6,7.9-8.5,17.4-10.8,21.3
				C135.6,873,137.6,875.7,149.5,870.8z"/>
			<path class="st0" d="M1045,304.9c-0.9-8.2-2.6-19.2-6.1-32.2c-1.8-8.6-5.1-20.7-11.6-34c-20.3-41.7-54.5-62-67.8-68.8
				c-14.4-7.4-38.4-15.6-57.4-19.8c-8.9-1.9-25.7-4.4-26.3-4l-5.7-1c-13.7-1.9-29.9-3.2-48-2.8c-19.6,0.4-36.9,2.7-51.3,5.5
				c-7.5,0.7-23.2,4.5-23.2,4.8c0.2,1.6,23.1-1.1,52.4-0.1c4.8,0.2,11.7,0.4,20.2,1.2c18.6,1.8,45.1,4.6,74,19.3
				c11,5.6,21.2,12.4,31.4,20.8c29.7,24.7,46.1,54.5,52,95.1c5.6,37.6-2.8,87.6-23,137.4c-9,22.5-12.8,29.7-39.4,77.9
				c-2.6,4.9-19.5,31.2-20.5,32c-0.5,0.5-3.6,4.5-6.7,9.2c-33.1,49.3-97.9,120.1-151.6,166.1c-6.2,5.4-11.8,10.4-12.3,10.9
				c-1.1,1.3-28.2,22.7-61.5,48.3c-7.9,6.2-64.3,43.5-77.9,51.5c-5.9,3.5-13.9,8.5-18,11.1c-10.2,6.4-80.9,42.5-91.7,46.8
				c-4.9,1.8-12.6,5.4-17.2,7.5c-21.8,10.4-58,22.9-93,32.5c-0.4,0.1-0.8,0.2-1.1,0.3c-14,3.8-27.9,7.2-40.5,9.8
				c-110.4,22.3-191.1,8.4-241.3-41.8c-6.1-6.1-13-14.1-15.6-18c-8.9-13.1-21.2-41.3-24.3-55.9c-0.6-2.8-2.2-5.8-3-10.2
				c-0.8-4.1-1-8.1-1.1-11.3c0.7-3,0.7-6.4,0.5-11.7c-0.4-10.7,3.3-32.2,3.3-35.2c0.3-12.2,10.7-49.3,23.8-85.7
				c1.5-4,2.5-8.2,2.1-9.2c-0.6-1.7-2.9,2.7-19.3,39.1c-8.7,19.1-21.5,56.4-25.8,75.7c-2.3,10.2-3.6,18.7-4.3,22.8
				c-2.5,15.3-4.2,26.1-4.1,40.8c0.1,11.7,1.2,20.7,2,26.1c0.9,6.8,2.3,17,6.2,29.8c2.4,7.9,4.8,13.6,6.3,17.3
				c3.3,8,8.3,18.5,15.7,30.3c2.8,4.8,6.7,10.5,11.9,16.2c4.1,4.5,8.1,8,11.7,10.9c4.1,3.5,10,8.2,17.7,13.1
				c18.6,12,35,17.5,46.7,21.2c15.1,4.8,27,7,35.8,8.6c15.9,2.8,28.3,3.8,32.7,4.1c3.1,0.2,6,0.3,8.9,0.4c12.1,0.4,21.3,0,27.1-0.3
				c2,0.3,4.9,0.3,6.6,0c0.4-0.1,0.6-0.3,0.5-0.4c37.7-2,57.7-3.3,77.7-7c0,0,20-3.7,57.7-14.6c3.4-1,11.7-3.4,20.5-6.4
				c11.9-4,12.6-4.8,25.4-9.4c14.7-5.3,38.9-13.4,47.4-17c0.2-0.1,1.4-0.6,3-1.3c2.4-1,5.9-2.5,10.1-4.3
				c18.9-7.7,24.8-10.6,58.2-27.7c40.2-20.7,63.5-33.6,74.6-41.3c4.4-3,14.1-9.2,21.3-13.6c12.3-7.5,33.6-22.3,64.1-44.1
				c18-13.1,31.8-25.5,31.8-29c0-0.2,0.1-0.6,0.3-1c0.8,0.4,1.6,0.8,2.5,1.1l-0.9,1.3l7.7,2c10,2.7,57.6,16.6,92.2,26.9
				c9.5,2.9,22.1,6.7,28.4,8.4c6.1,1.8,15.9,4.9,22.1,6.7c19.8,5.9,45.3,13.4,56.1,16.8c17,5.2,21.3,5.9,21.3,2.8
				c0-1.3-1.1-3.4-2.5-4.5c-1.3-1.2-2.5-2.7-2.5-3.4c0-0.7-6.6-15.3-14.8-32.4c-8-17.3-14.8-31.7-14.8-32c0-0.5-12.1-26-27.1-56.9
				c-16.1-33.4-27.1-58.2-27.1-61.1c0-3.7,1.8-6.4,7.5-11.4c4.1-3.7,12.8-13.6,19.5-21.8c6.6-8.4,15.6-19.6,19.8-25.2
				c30.2-38.1,57.9-82.1,78.2-124.2c16.9-34.7,27.4-64.8,35.4-100.7c1.8-8.2,3.4-19.8,4.2-28c2-7.2,4.3-17.7,4.6-30.6
				C1046.1,316.2,1045.5,310.2,1045,304.9z"/>
			<path class="st0" d="M612.3,452.7c0,2.3,0.3,3.2,0.8,2c0.3-1,0.3-3,0-4.2C612.6,449.5,612.3,450.3,612.3,452.7z"/>
			<path class="st0" d="M514.2,582c-1.8,0-2.3,0.5-1,1c1.1,0.5,2.6,0.3,3.1-0.2C517,582.4,516,581.9,514.2,582z"/>
			<path class="st0" d="M857.8,171.6c-3.6,0-7.3,0-10.9,0.2L857.8,171.6z"/>
			<path class="st0" d="M71.3,909.1L71.3,909.1z"/>
		</g>
	</g>
</g>
</svg>
